# xmcd CD database file
#
# Track frame offsets:
#	150
#	25890
#	46923
#	70848
#	96538
#	117535
#
# Disc length: 1878 seconds
#
# Revision: 5
# Processed by: cddbd v1.5.1PL2 Copyright (c) Steve Scherf et al.
# Submitted via: CDex 1.51
#
DISCID=51075406
DTITLE=岩崎宏美 - 止まった時計
DYEAR=2002
DGENRE=Ballad
TTITLE0=止まった時計
TTITLE1=方舟
TTITLE2=小さな蝶
TTITLE3=止まった時計（オリジナルカラオケ）
TTITLE4=方舟（オリジナルカラオケ）
TTITLE5=小さな蝶（オリジナルカラオケ）
EXTD=YEAR: 2002
EXTT0=
EXTT1=
EXTT2=
EXTT3=
EXTT4=
EXTT5=
PLAYORDER=
